<?xml version="1.0" standalone="no"?>
<!DOCTYPE svg PUBLIC "-//W3C//DTD SVG 20010904//EN"
 "http://www.w3.org/TR/2001/REC-SVG-20010904/DTD/svg10.dtd">
<svg version="1.0" xmlns="http://www.w3.org/2000/svg"
 width="347.000000pt" height="118.000000pt" viewBox="0 0 347.000000 118.000000"
 preserveAspectRatio="xMidYMid meet">

<g transform="translate(0.000000,118.000000) scale(0.100000,-0.100000)"
fill="#000000" stroke="none">
<path d="M130 566 l0 -439 46 7 c26 3 55 6 65 6 18 0 19 14 21 238 l3 237 59
-170 c102 -294 94 -275 125 -275 16 0 49 3 75 6 l46 7 0 411 0 411 -65 0 -65
0 0 -244 c0 -134 -3 -241 -7 -237 -4 4 -46 113 -93 243 l-85 235 -63 1 -62 2
0 -439z"/>
<path d="M883 1002 l-183 -2 0 -400 0 -400 33 0 c17 0 103 5 190 12 l157 12 0
68 0 68 -27 -5 c-16 -2 -70 -7 -120 -10 l-93 -6 0 106 0 105 95 0 95 0 0 65 0
65 -95 0 -95 0 0 95 0 95 120 0 120 0 0 64 c0 36 -3 66 -7 68 -5 2 -90 2 -190
0z"/>
<path d="M1873 1002 l-183 -2 0 -380 0 -380 65 0 64 0 3 158 3 157 93 3 92 3
0 64 0 65 -95 0 -95 0 0 90 0 90 125 0 125 0 0 64 c0 36 -3 66 -7 68 -5 2 -90
2 -190 0z"/>
<path d="M2160 620 l0 -390 73 0 c39 0 123 -3 185 -7 l112 -6 0 65 0 65 -61 7
c-34 3 -88 6 -120 6 l-59 0 0 325 0 325 -65 0 -65 0 0 -390z"/>
<path d="M2688 1002 l-48 -3 0 -393 0 -394 31 -6 c17 -3 49 -6 70 -6 l39 0 -2
402 c-3 455 8 406 -90 400z"/>
<path d="M2900 1000 c0 -3 34 -93 75 -200 41 -107 75 -201 75 -210 0 -8 -38
-102 -84 -208 -94 -216 -95 -196 9 -206 l50 -4 49 114 c27 64 52 112 56 107 4
-4 26 -60 50 -123 24 -63 44 -116 45 -118 1 -1 36 -8 78 -15 69 -12 77 -12 72
2 -3 9 -42 114 -88 233 l-84 216 88 207 c49 114 89 207 89 208 0 6 -144 -3
-150 -10 -4 -4 -26 -54 -50 -110 -24 -56 -46 -101 -49 -99 -3 2 -24 51 -46
109 l-39 106 -73 3 c-40 2 -73 1 -73 -2z"/>
<path d="M1170 935 l0 -65 75 0 75 0 0 -321 0 -321 23 6 c12 3 41 6 65 6 l42
0 0 315 0 315 75 0 75 0 0 65 0 65 -215 0 -215 0 0 -65z"/>
</g>
</svg>
